HIERARCHY
ROOT Hips
{
  OFFSET 170.899 103.67 -166.671
  CHANNELS 6 Xposition Yposition Zposition Zrotation Xrotation Yrotation
  JOINT ToSpine
  {
    OFFSET -2.69724 7.43032 -0.144315
    CHANNELS 3 Zrotation Xrotation Yrotation
    JOINT Spine
    {
      OFFSET -0.0310711 10.7595 1.96963
      CHANNELS 3 Zrotation Xrotation Yrotation
      JOINT Spine1
      {
        OFFSET 19.9056 3.91189 0.764692
        CHANNELS 3 Zrotation Xrotation Yrotation
        JOINT Neck
        {
          OFFSET 25.9749 7.03908 -0.130764
          CHANNELS 3 Zrotation Xrotation Yrotation
          JOINT Head
          {
            OFFSET 9.52751 0.295786 -0.907742
            CHANNELS 3 Zrotation Xrotation Yrotation
            End Site
            {
              OFFSET 16.4037 0.713936 2.7358
            }
          }
        }
        JOINT LeftShoulder
        {
          OFFSET 17.7449 4.33886 11.7777
          CHANNELS 3 Zrotation Xrotation Yrotation
          JOINT LeftArm
          {
            OFFSET 0.911315 1.27913 9.80584
            CHANNELS 3 Zrotation Xrotation Yrotation
            JOINT LeftForeArm
            {
              OFFSET 28.6126 1.18197 -3.53199
              CHANNELS 3 Zrotation Xrotation Yrotation
              JOINT LeftHand
              {
                OFFSET 27.5088 0.0218783 0.327423
                CHANNELS 3 Zrotation Xrotation Yrotation
                End Site
                {
                  OFFSET 18.6038 -0.000155887 0.382096
                }
              }
            }
          }
        }
        JOINT RightShoulder
        {
          OFFSET 17.1009 2.89543 -12.2328
          CHANNELS 3 Zrotation Xrotation Yrotation
          JOINT RightArm
          {
            OFFSET 1.4228 0.178766 -10.211
            CHANNELS 3 Zrotation Xrotation Yrotation
            JOINT RightForeArm
            {
              OFFSET 28.733 1.87905 2.64907
              CHANNELS 3 Zrotation Xrotation Yrotation
              JOINT RightHand
              {
                OFFSET 27.4588 0.290562 -0.101845
                CHANNELS 3 Zrotation Xrotation Yrotation
                End Site
                {
                  OFFSET 17.8396 -0.255518 -0.000602873
                }
              }
            }
          }
        }
      }
    }
  }
  JOINT LeftUpLeg
  {
    OFFSET -5.61296 -2.22332 -10.2353
    CHANNELS 3 Zrotation Xrotation Yrotation
    JOINT LeftLeg
    {
      OFFSET 2.56703 -44.7417 -7.93097
      CHANNELS 3 Zrotation Xrotation Yrotation
      JOINT LeftFoot
      {
        OFFSET 3.16933 -46.5642 -3.96578
        CHANNELS 3 Zrotation Xrotation Yrotation
        JOINT LeftToeBase
        {
          OFFSET 0.346054 -6.02161 12.8035
          CHANNELS 3 Zrotation Xrotation Yrotation
          End Site
          {
            OFFSET 0.134235 -1.35082 5.13018
          }
        }
      }
    }
  }
  JOINT RightUpLeg
  {
    OFFSET -5.7928 -1.72406 10.6446
    CHANNELS 3 Zrotation Xrotation Yrotation
    JOINT RightLeg
    {
      OFFSET -2.57161 -44.7178 -7.85259
      CHANNELS 3 Zrotation Xrotation Yrotation
      JOINT RightFoot
      {
        OFFSET -3.10148 -46.5936 -4.03391
        CHANNELS 3 Zrotation Xrotation Yrotation
        JOINT RightToeBase
        {
          OFFSET -0.0828122 -6.13587 12.8035
          CHANNELS 3 Zrotation Xrotation Yrotation
          End Site
          {
            OFFSET -0.131328 -1.35082 5.13018
          }
        }
      }
    }
  }
}
MOTION
Frames:	17
Frame Time:	0.0333333
-254.96 97.7818 261.652 80.8532 31.0793 11.9012 -70.1915 0 88.8779 62.2027 77.2922 28.123 11.3041 25.9608 4.81944 -146.864 17.9322 171.977 -148.397 54.0052 161.457 2.40156 0.411249 -24.1519 -46.1809 50.0678 -125.827 -8.86977 -7.56075 -54.2236 -2.25167 0.129433 -5.41761 0.765179 -3.95042 28.4122 -63.5078 -55.3537 96.4908 2.95742 -0.741718 76.7191 0.0726924 0.0103302 -2.40183 -75.6846 20.4663 123.501 -11.2282 34.8434 -24.9919 11.6467 -3.53675 -1.4132 -5.9792 -21.542 12.1793 -45.5898 22.7679 98.1416 0.0877804 30.6576 -6.85677 -5.01093 -2.16765 0.837436 0.360526 11.2753 -8.48971 
-252.604 97.7546 259.078 82.2357 30.9844 11.0963 -70.1915 0 88.8779 70.8522 78.1901 19.7077 9.69454 26.3721 5.49205 -146.448 17.9464 171.883 -148.639 54.1143 161.677 2.41391 0.327835 -24.3972 -45.8249 49.6602 -126.128 -8.90449 -7.63359 -54.058 -1.94488 0.115762 -5.80438 0.811567 -4.24294 28.4689 -63.9884 -55.9307 95.54 1.37332 -0.383395 76.952 1.95405 -0.0164724 -1.82232 -80.7467 18.943 124.598 -11.2204 31.4902 -25.0202 10.951 -1.9791 -1.38619 -6.34045 -23.8325 12.5954 -48.9053 23.0446 98.4383 -3.1222 17.9974 -4.50064 -3.96898 -1.07797 0.690021 -2.54834 21.3225 -7.57447 
-250.217 97.5488 256.516 83.9082 31.1485 9.92952 -70.1915 0 88.8779 82.5819 78.7425 8.03984 8.43208 26.6187 5.77879 -146.726 17.8988 172.016 -148.984 54.1032 161.671 2.43344 0.390701 -24.5187 -45.6418 49.3634 -126.318 -8.93486 -7.69517 -53.9283 -1.65038 0.100119 -6.1268 0.867995 -4.58217 28.5971 -64.2866 -56.4788 95.1495 1.02978 -0.295726 76.7531 2.26562 -0.00946793 -1.05513 -85.3493 16.8311 124.721 -10.341 28.6719 -25.6917 9.85046 -1.11102 -1.28403 -6.5989 -25.5128 13.3525 -49.8779 22.6958 95.2348 -4.78629 12.0529 -1.62799 -3.07952 -2.27434 0.642866 -2.23617 23.1369 -8.94663 
-247.563 97.0566 253.889 85.5726 31.499 8.79897 -70.1915 0 88.8779 95.6176 78.8097 -5.18714 6.98665 26.6038 6.50661 -146.939 18.0592 172.274 -148.665 54.1087 161.045 2.54638 0.687948 -25.2872 -45.8434 49.0919 -126.11 -8.75144 -7.67353 -53.543 -1.4554 0.084402 -5.88975 0.874334 -4.66876 28.4072 -66.1599 -57.0852 93.391 2.16161 -0.575075 77.413 0.625106 0.000487142 -2.32317 -89.1159 15.5636 125.015 -9.32508 28.3547 -27.5328 9.3351 -0.378698 -1.23337 -6.83515 -27.1958 14.181 -50.6476 21.9711 94.355 -4.14731 11.3957 -3.03036 -2.70828 -7.07341 0.83486 -2.11438 18.7972 -7.2235 
-244.829 96.6109 251.152 86.4291 31.6272 8.19376 -70.1915 0 88.8779 106.084 78.3206 -15.3406 5.73631 26.559 6.60735 -147.189 18.073 172.193 -147.91 53.9105 160.494 2.59845 0.96738 -25.4272 -46.2857 49.8 -125.533 -10.1606 -8.85476 -53.2165 -3.46183 0.23387 -6.46987 0.87646 -4.6397 28.5865 -66.3095 -57.5556 93.2037 0.895241 -0.293051 77.3312 3.03891 -0.0302447 -1.81885 -91.2202 14.2509 124.179 -7.4412 29.1701 -28.6745 8.52526 0.345013 -1.13988 -7.12338 -29.2151 14.1027 -50.4574 21.5785 93.6518 -3.49559 14.8878 -2.82999 -4.05277 -5.12332 0.845293 -1.23081 20.5907 -9.72976 
-241.871 96.0846 248.21 86.628 31.8949 7.90488 -70.1915 0 88.8779 111.544 77.5348 -20.4453 4.51786 26.2423 6.7348 -147.398 17.7454 172.511 -147.915 53.4905 160.377 2.64156 1.00637 -25.8058 -47.5758 51.2638 -123.39 -10.2412 -8.83913 -53.4433 -3.79553 0.24771 -6.13841 0.823554 -4.22517 28.9166 -67.1739 -57.5306 92.1106 0.540783 -0.21193 77.2827 2.79391 -0.0390754 -2.45023 -92.1259 12.6943 122.413 -4.88922 30.7583 -29.4342 7.71304 0.779981 -1.03752 -7.37367 -30.436 12.5241 -49.0314 21.5246 95.0642 -2.31447 21.0669 -7.39874 -4.4804 -1.63658 0.76559 -1.51232 21.1684 -9.44741 
-239.04 95.9221 245.445 86.3751 32.3075 8.21901 -70.1915 0 88.8779 115.57 76.7846 -23.7645 3.22747 25.8621 7.38174 -147.709 17.9444 173.398 -148.414 53.7197 160.4 2.71436 1.03697 -26.4899 -48.0478 52.5108 -121.959 -10.1971 -8.91086 -53.1202 -3.11279 0.199557 -6.08888 0.817497 -4.25503 28.5923 -67.3799 -57.6444 91.7796 1.35338 -0.379702 76.9728 1.80879 -0.0242149 -2.75152 -91.243 11.4678 118.823 -2.31026 34.1842 -28.6509 5.2049 0.3754 -0.729847 -7.22125 -29.3335 11.8389 -47.352 21.943 97.3661 -0.722777 27.1422 -8.07694 -3.98358 1.24441 0.607191 -1.21349 20.1845 -9.58588 
-236.305 95.8541 242.792 85.3012 32.5876 9.43711 -70.1915 0 88.8779 117.223 76.2472 -24.1096 1.95979 25.5152 7.72991 -147.84 17.7674 173.435 -147.37 53.2133 159.704 2.69243 1.09938 -26.1809 -47.6323 54.2133 -121.188 -10.3945 -9.08894 -53.0654 -3.4121 0.230709 -6.48479 0.798354 -4.13304 28.5804 -67.4036 -57.4758 91.2963 1.18542 -0.342005 76.9851 2.50669 -0.0580768 -3.92606 -87.592 10.9313 110.889 -3.54266 40.7193 -19.9767 2.85791 0.945593 -0.412854 -7.02445 -27.8977 9.91709 -45.4343 22.3292 96.7256 0.140824 32.5051 -7.47661 -3.8635 1.89063 0.567168 1.08238 18.4101 -13.3042 
-233.858 95.7688 240.33 83.8212 32.9138 10.8963 -70.1915 0 88.8779 116.868 75.9026 -22.2536 1.25327 25.2512 7.73972 -147.703 17.7627 173.34 -146.819 53.1161 159.755 2.62945 0.793222 -25.9894 -48.0938 55.8995 -120.185 -10.0808 -8.84459 -53.0656 -3.63116 0.241842 -6.32612 0.741337 -3.78483 28.4591 -67.344 -56.8863 91.2201 1.51864 -0.400901 76.5395 1.57861 -0.0126198 -1.93511 -81.3886 12.828 108.248 -4.38295 50.9248 -14.3311 1.45104 0.908362 -0.233929 -4.72549 -16.5908 6.39547 -43.8954 22.3921 95.1273 0.436609 36.4129 -6.28172 -4.16255 0.835529 0.645136 2.18198 17.8727 -15.2885 
-231.541 95.9378 238.201 82.3411 33.6212 12.6316 -70.1915 0 88.8779 116.978 75.5791 -21.0245 0.895842 25.0977 7.76814 -148.544 17.8152 172.747 -147.425 53.3903 160.081 2.56317 0.692307 -25.4544 -47.3708 56.5762 -120.967 -9.85879 -8.66588 -53.0843 -3.07983 0.207739 -6.52141 0.748904 -3.89323 28.1585 -66.8186 -56.7159 91.8077 0.203772 -0.123969 77.072 2.69099 -0.0624015 -3.84771 -73.8072 14.2737 104.053 -5.87617 60.6013 -8.25591 2.52671 5.54165 -0.142277 -5.55021 -19.1836 11.0522 -43.4564 22.1733 93.1922 0.615357 38.1313 -5.60878 -4.80519 -0.949347 0.780384 2.77538 16.8163 -16.0908 
-229.31 96.0262 236.237 81.38 34.4217 14.8672 -70.1915 0 88.8779 116.806 75.4709 -18.4865 2.03868 25.2764 7.39361 -149.032 18.489 172.252 -147.257 54.2687 160.893 2.54628 0.349739 -25.7784 -46.2257 55.2424 -123.322 -9.8102 -8.76601 -52.6737 -3.41185 0.218519 -6.03453 0.730272 -3.87119 27.6408 -67.5951 -56.401 91.485 0.746238 -0.2809 77.7318 2.7123 -0.0654866 -3.98136 -65.6954 16.3324 99.9831 -8.33445 69.271 -0.588975 3.44037 6.20748 -0.268091 -6.21273 -22.8388 13.3783 -43.6004 22.6354 91.101 0.684057 39.2993 -5.74634 -4.95823 -4.17676 0.888663 1.88224 18.7463 -15.0225 
-227.04 96.255 234.147 79.9625 35.0216 16.3468 -70.1915 0 88.8779 114.46 75.7957 -14.7059 2.65261 25.6457 6.70933 -149.022 18.9299 171.238 -146.451 54.7424 161.163 2.51418 0.369123 -25.4081 -44.5641 53.9295 -126.351 -10.1567 -9.28822 -51.9642 -3.55047 0.242162 -6.53854 0.73554 -3.87819 27.7841 -68.16 -55.7718 91.17 0.871037 -0.307226 77.7244 1.50915 -0.0214751 -3.20713 -57.5993 17.4009 97.282 -11.8696 74.9938 5.52038 3.79616 5.00144 -0.376405 -6.32791 -23.554 13.9651 -44.0753 22.3616 89.9191 0.842526 39.6454 -4.82093 -5.22846 -3.91594 0.905064 3.5091 13.0764 -16.1717 
-224.887 96.6028 231.778 77.6594 35.2477 17.5528 -70.1915 0 88.8779 107.118 76.2659 -6.03372 3.71847 26.0855 5.21343 -148.634 19.3716 170.537 -146.672 55.4303 161.7 2.50341 0.405741 -25.2404 -43.7668 52.6923 -127.985 -9.28595 -8.64388 -51.7859 -2.95616 0.206378 -6.84928 0.653168 -3.29955 27.8826 -69.0269 -55.257 90.7264 1.57871 -0.452006 77.5451 0.213297 0.0110556 -3.29892 -49.3659 16.6742 95.411 -14.2976 77.5146 9.58348 4.17654 4.43105 -0.458703 -6.61506 -25.6213 13.538 -43.8085 21.0716 88.7733 1.08208 40.4939 -3.62044 -5.54597 -4.99328 0.957977 4.04197 10.623 -16.3334 
-222.743 96.9798 229.242 75.3072 35.0616 18.6952 -70.1915 0 88.8779 99.3201 76.6389 3.10715 4.29717 26.574 3.90649 -148.296 19.5126 170.565 -147.956 55.9362 162.56 2.46845 0.156724 -25.2294 -44.5112 52.5152 -127.826 -9.30792 -8.47622 -52.3512 -2.84268 0.176937 -5.8997 0.617547 -3.08292 27.7188 -72.0882 -54.4679 88.7191 10.8343 -2.36638 78.3307 -8.7004 0.486159 -6.30947 -42.0618 15.4885 94.4913 -13.4265 77.1076 9.43556 4.52187 4.18448 -0.5214 -6.85676 -27.3729 14.3837 -43.8575 19.7618 87.8735 1.28327 40.8331 -2.48863 -5.86764 -6.95767 1.02349 3.99609 10.4796 -16.1685 
-220.507 97.4855 226.56 73.8614 34.8183 19.4018 -70.1915 0 88.8779 95.2333 76.5513 8.76791 4.73041 26.8366 2.21556 -148.357 19.6271 170.835 -148.29 56.1166 162.741 2.51706 0.579914 -25.1353 -45.5769 52.3999 -126.99 -8.38013 -7.60413 -52.8223 -3.42035 0.222377 -6.1556 0.586218 -2.88295 27.6151 -66.5113 -54.9953 93.7007 -0.183682 -0.0505873 77.2786 1.91505 -0.0307249 -3.1328 -36.8048 14.372 94.2007 -9.69032 73.6011 6.21554 4.51 4.12748 -0.521401 -7.05667 -28.8122 14.3993 -45.2079 18.0565 85.9249 1.31104 40.3838 -0.111526 -5.96109 -9.27789 1.07518 3.14483 12.5776 -15.1726 
-218.14 98.0774 223.758 72.6298 34.6826 19.6157 -70.1915 0 88.8779 88.7231 76.5603 16.0966 5.52653 27.0966 1.03108 -147.862 19.6171 171.047 -147.742 55.9958 162.65 2.54611 0.48162 -25.581 -47.2124 52.3472 -125.931 -8.91525 -7.89461 -53.2242 -4.14491 0.268714 -6.04804 0.567914 -2.78738 27.3917 -65.7297 -54.8204 94.9468 -0.328535 -0.0165154 77.2531 2.22853 -0.0390719 -3.18709 -33.3821 12.8312 94.4975 -6.18534 67.2451 2.69141 4.42049 2.357 -0.566548 -6.80461 -27.1526 15.9721 -47.4461 15.9784 84.0048 1.18039 39.2479 3.05694 -5.93141 -12.0405 1.1299 2.79614 14.8699 -15.3739 
-215.643 98.6276 221.008 72.0118 34.9076 19.5225 -70.1915 0 88.8779 85.4801 76.1085 19.6625 6.34411 26.819 -0.131324 -148.531 19.5905 171.621 -147.818 55.9203 162.746 2.63833 0.987692 -25.7998 -49.0302 52.8436 -124.322 -9.2006 -7.77813 -54.3025 -4.51758 0.290661 -5.95565 0.524841 -2.48003 27.4419 -64.8447 -54.4235 96.4715 -0.305797 -0.0415569 77.5332 2.09633 -0.0388346 -3.42264 -31.8754 11.3008 94.7526 -3.75537 58.4285 0.346884 4.05051 4.01853 -0.45379 -7.01851 -28.6448 14.9147 -50.7186 13.7823 81.6821 1.39171 37.104 6.17493 -6.68205 -12.7346 1.15177 3.09961 13.8751 -15.6145 
